HIERARCHY
ROOT Hips
{
	OFFSET -3.958830 18.904000 13.208200
	CHANNELS 6 Xposition Yposition Zposition Zrotation Yrotation Xrotation 
	JOINT LHipJoint
	{
		OFFSET 0.000000 0.000000 0.000000
		CHANNELS 3 Zrotation Yrotation Xrotation
		JOINT LeftUpLeg
		{
			OFFSET 1.800000 -1.400000 0.085000
			CHANNELS 3 Zrotation Yrotation Xrotation
			JOINT LeftLeg
			{
				OFFSET 2.215000 -6.000000 0.000000
				CHANNELS 3 Zrotation Yrotation Xrotation
				JOINT LeftFoot
				{
					OFFSET 2.500000 -6.900000 0.000000
					CHANNELS 3 Zrotation Yrotation Xrotation
					JOINT LeftToeBase
					{
						OFFSET 0.200000 -0.500000 1.950000
						CHANNELS 3 Zrotation Yrotation Xrotation
						End Site
						{
							OFFSET 0.000000 0.000000 0.000000
						}
					}
				}
			}
		}
	}
	JOINT RHipJoint
	{
		OFFSET 0.000000 0.000000 0.000000
		CHANNELS 3 Zrotation Yrotation Xrotation
		JOINT RightUpLeg
		{
			OFFSET -1.800000 -1.400000 0.085000
			CHANNELS 3 Zrotation Yrotation Xrotation
			JOINT RightLeg
			{
				OFFSET -2.215000 -6.000000 0.000000
				CHANNELS 3 Zrotation Yrotation Xrotation
				JOINT RightFoot
				{
					OFFSET -2.500000 -6.900000 0.000000
					CHANNELS 3 Zrotation Yrotation Xrotation
					JOINT RightToeBase
					{
						OFFSET -0.200000 -0.500000 1.950000
						CHANNELS 3 Zrotation Yrotation Xrotation
						End Site
						{
							OFFSET 0.000000 0.000000 0.000000
						}
					}
				}
			}
		}
	}
	JOINT LowerBack
	{
		OFFSET 0.000000 0.000000 0.000000
		CHANNELS 3 Zrotation Yrotation Xrotation
		JOINT Spine
		{
			OFFSET -0.087000 1.940000 -0.288900
			CHANNELS 3 Zrotation Yrotation Xrotation
			JOINT Spine1
			{
				OFFSET 0.000000 1.950000 0.060000
				CHANNELS 3 Zrotation Yrotation Xrotation
				JOINT Neck
				{
					OFFSET 0.000000 0.000000 0.000000
					CHANNELS 3 Zrotation Yrotation Xrotation
					JOINT Neck1
					{
						OFFSET 0.000000 1.600000 0.340000
						CHANNELS 3 Zrotation Yrotation Xrotation
						JOINT Head
						{
							OFFSET 0.000000 1.667000 -0.240000
							CHANNELS 3 Zrotation Yrotation Xrotation
							End Site
							{
								OFFSET 0.000000 0.000000 0.000000
							}
						}
					}
				}
				JOINT LeftShoulder
				{
					OFFSET 0.000000 0.000000 0.000000
					CHANNELS 3 Zrotation Yrotation Xrotation
					JOINT LeftArm
					{
						OFFSET 2.700000 1.550000 -0.730000
						CHANNELS 3 Zrotation Yrotation Xrotation
						JOINT LeftForeArm
						{
							OFFSET 5.450000 0.000000 0.000000
							CHANNELS 3 Zrotation Yrotation Xrotation
							JOINT LeftHand
							{
								OFFSET 3.450000 0.000000 0.000000
								CHANNELS 3 Zrotation Yrotation Xrotation
								JOINT LeftHandIndex1
								{
									OFFSET 0.750000 0.000000 0.000000
									CHANNELS 3 Zrotation Yrotation Xrotation
									End Site
									{
										OFFSET 0.000000 0.000000 0.000000
									}
								}
							}
						}
					}
				}
				JOINT RightShoulder
				{
					OFFSET 0.000000 0.000000 0.000000
					CHANNELS 3 Zrotation Yrotation Xrotation
					JOINT RightArm
					{
						OFFSET -2.700000 1.550000 -0.730000
						CHANNELS 3 Zrotation Yrotation Xrotation
						JOINT RightForeArm
						{
							OFFSET -5.450000 0.000000 0.000000
							CHANNELS 3 Zrotation Yrotation Xrotation
							JOINT RightHand
							{
								OFFSET -3.450000 0.000000 0.000000
								CHANNELS 3 Zrotation Yrotation Xrotation
								JOINT RightHandIndex1
								{
									OFFSET -0.750000 0.000000 0.000000
									CHANNELS 3 Zrotation Yrotation Xrotation
									End Site
									{
										OFFSET 0.000000 0.000000 0.000000
									}
								}
							}
						}
					}
				}
			}
		}
	}
}
MOTION
Frames: 13
Frame Time: 0.016667
-2.808050 17.931760 -0.857440 -148.579024 -85.585466 146.536580 -15.878653 13.561800 2.835982 3.587163 -0.407917 -7.606796 -6.396794 5.245513 8.514281 -0.426944 4.182343 3.330792 0.234690 0.250570 0.043920 17.614451 -10.639307 2.722147 -0.325304 0.234006 -8.078212 2.783103 -3.430032 9.552898 0.077972 -3.643730 3.155100 0.409730 0.670820 0.159490 -4.731581 -0.574428 -6.822296 11.280672 0.255971 5.665973 -2.952564 0.089774 14.330391 0.923059 -1.854073 -7.767738 -3.959056 4.675067 29.384054 -3.523390 4.209080 2.223270 1.505256 -8.782313 2.352067 3.977279 -24.044134 -1.777590 96.687650 -24.180435 -26.693042 -4.273707 3.131891 -0.206960 0.581340 -0.406230 0.217660 -3.055869 10.617611 2.917662 -1.897206 23.795787 -3.806710 -95.166482 23.920370 -28.721493 2.063938 -2.190553 -0.270460 0.240550 0.002840 0.061240 
-2.791140 17.948800 -0.859800 -153.004053 -84.975161 151.392872 -15.902657 13.435206 2.847547 3.410775 -0.387769 -7.291404 -6.361586 5.000239 7.116500 -0.428185 4.098199 3.354769 0.218380 0.224920 0.021940 17.604562 -10.641636 2.760741 -0.503271 0.167561 -7.885997 3.217633 -3.413903 8.057684 0.063417 -3.625201 3.164080 0.383800 0.658450 0.152980 -4.767650 -0.668001 -6.888609 11.301905 0.439354 5.773419 -2.970432 0.305418 14.094477 0.793243 -2.085278 -8.028481 -4.442333 4.947562 29.751723 -2.656120 3.943100 1.969400 1.269661 -9.108134 2.501017 5.301059 -22.335190 -2.443291 97.464438 -22.357493 -25.115202 -4.259026 3.151026 -0.174800 0.551750 -0.397470 0.207920 -2.600027 11.102378 3.269563 -2.840319 22.219885 -4.471184 -96.430471 22.739092 -27.900008 2.081051 -2.182000 -0.270400 0.238530 0.023670 0.058830 
-2.776400 17.959450 -0.859750 -154.910913 -84.601678 153.672140 -15.903562 13.374200 2.862698 3.185223 -0.398339 -7.203101 -6.204142 4.806216 6.252957 -0.434586 4.015998 3.370229 0.212460 0.210100 0.015910 17.610712 -10.614414 2.801147 -0.769185 0.083929 -7.590227 3.719118 -3.422022 6.680020 0.034688 -3.609154 3.167828 0.361000 0.627180 0.144590 -4.749542 -0.785318 -6.956488 11.278936 0.538013 5.975334 -2.945309 0.485238 13.850150 0.750537 -2.311415 -8.362229 -4.976563 5.078636 30.279576 -1.975490 3.665520 1.282870 1.013062 -9.714377 2.696309 6.550213 -20.795863 -3.151576 97.621123 -20.458145 -23.221045 -4.225301 3.159191 -0.125080 0.507680 -0.370140 0.198080 -2.297767 11.858927 3.678175 -4.089837 20.449014 -5.309339 -96.930438 21.475603 -26.610223 2.103665 -2.165509 -0.269810 0.237400 0.034060 0.051100 
-2.761080 17.959510 -0.854110 -154.636255 -84.894414 153.521852 -15.880064 13.381277 2.926506 2.857697 -0.363132 -6.786411 -6.066260 4.609274 5.114891 -0.428377 3.967513 3.381025 0.213210 0.195630 0.028440 17.631272 -10.578781 2.803024 -1.129645 0.081083 -7.532862 3.981774 -3.459225 6.365993 0.015244 -3.579243 3.171106 0.338200 0.593020 0.140650 -4.647446 -0.952764 -7.021647 11.000812 0.392659 6.525046 -2.955027 0.425884 13.511313 0.764962 -2.390476 -8.668459 -5.245031 5.124310 30.590004 -1.552510 3.549910 0.643650 0.500705 -10.537430 2.792936 8.569329 -19.334396 -3.976160 96.679610 -18.746026 -20.972747 -4.195783 3.164699 -0.077890 0.467100 -0.342000 0.187990 -1.843602 12.690342 4.110446 -5.532073 18.365038 -6.184817 -97.235385 20.367190 -25.380106 2.130074 -2.156114 -0.268350 0.230090 0.034530 0.038830 
-2.747260 17.954430 -0.846710 -153.340555 -85.364709 152.168753 -15.848632 13.420273 2.994133 2.648923 -0.310219 -6.379756 -6.046567 4.496687 4.268932 -0.407543 3.936839 3.375187 0.220340 0.195600 0.047510 17.653635 -10.542260 2.803136 -1.494915 0.065169 -7.405866 4.182950 -3.505179 6.247069 -0.006981 -3.553179 3.168647 0.318530 0.543090 0.141630 -4.528422 -1.117467 -7.091583 10.755136 0.217891 7.286366 -3.025833 0.369137 13.161228 0.871405 -2.394575 -8.944759 -5.404236 5.024031 30.981962 -1.438070 3.518870 -0.080420 -0.160150 -11.446643 2.834898 10.845815 -18.313873 -4.743993 94.939102 -17.229929 -18.662737 -4.164748 3.175334 -0.039680 0.424360 -0.304950 0.174690 -1.427574 13.552300 4.518227 -7.182479 16.167767 -7.024832 -97.126051 19.305740 -24.003923 2.165229 -2.152579 -0.252730 0.208470 0.027570 0.028180 
-2.737300 17.948010 -0.838130 -150.162186 -85.927662 148.811126 -15.810483 13.483994 3.050565 2.586035 -0.243963 -5.953805 -6.048068 4.446621 3.697948 -0.365794 3.923825 3.364813 0.236710 0.212600 0.077300 17.682394 -10.490213 2.809466 -1.758043 0.035047 -7.176943 4.335568 -3.523930 6.061126 -0.030482 -3.533750 3.164686 0.305920 0.491400 0.148650 -4.405254 -1.242205 -7.158154 10.600158 0.057329 8.112853 -3.141392 0.326346 12.895949 1.016642 -2.279026 -9.164896 -5.323214 4.672899 31.162400 -1.703880 3.507950 -0.675810 -0.790846 -12.330323 2.808922 13.030878 -18.043736 -5.448535 93.041608 -15.781133 -16.547109 -4.142089 3.194236 -0.025710 0.390490 -0.266500 0.165830 -1.121766 14.302781 4.895601 -8.432107 14.031587 -7.722920 -97.080537 18.239195 -22.785126 2.206911 -2.168480 -0.222840 0.179420 0.006840 0.024790 
-2.728640 17.943580 -0.827730 -145.643099 -86.342391 144.288201 -15.760032 13.553673 3.093855 2.633762 -0.228492 -5.923405 -6.161350 4.445772 3.443952 -0.343274 3.927874 3.357258 0.233170 0.209850 0.073360 17.721993 -10.452382 2.799667 -1.878923 0.065192 -7.301471 4.349451 -3.539012 6.313230 -0.026160 -3.510389 3.173119 0.293670 0.478220 0.155560 -4.306883 -1.307821 -7.193173 10.660943 -0.049280 8.610451 -3.271959 0.318371 12.659879 1.117437 -2.193299 -9.374599 -5.225322 4.356174 30.981252 -1.860600 3.358960 -0.640490 -1.158232 -13.038247 2.853376 14.211414 -18.173534 -5.894562 91.844653 -14.831812 -15.328135 -4.143233 3.209703 -0.027740 0.384540 -0.258470 0.164210 -0.992429 14.887661 5.195167 -9.080821 12.322319 -8.215813 -97.297014 17.332471 -21.926286 2.227543 -2.194027 -0.208610 0.161090 0.004090 0.028300 
-2.727130 17.936760 -0.817870 -139.236271 -86.784470 138.165372 -15.696932 13.604026 3.119971 2.693538 -0.263481 -6.253308 -6.444953 4.475832 3.344342 -0.332683 3.949440 3.351790 0.227000 0.211490 0.051940 17.782438 -10.414597 2.763299 -1.931118 0.161785 -7.810493 4.280856 -3.531150 6.902864 0.002098 -3.490818 3.176770 0.299170 0.501990 0.169740 -4.203417 -1.310219 -7.170996 10.584809 -0.065384 8.488194 -3.196071 0.287047 12.589045 1.082290 -2.040384 -9.346702 -4.880237 3.978087 30.117849 -1.919880 3.007820 -0.113150 -1.029934 -13.140364 2.796011 14.129647 -19.328488 -6.034888 91.448599 -14.210786 -14.865761 -4.174947 3.240698 -0.065410 0.410350 -0.278940 0.170610 -1.071781 14.803872 5.212956 -9.052754 11.410146 -8.339135 -97.746366 16.839728 -21.652458 2.228104 -2.242793 -0.198480 0.150040 0.009620 0.044380 
-2.734380 17.924910 -0.808760 -126.918172 -87.245405 126.402930 -15.567672 13.665066 3.127377 2.662043 -0.353927 -6.990929 -6.646978 4.513521 3.586493 -0.327251 3.949004 3.354409 0.221320 0.225420 0.008770 17.912732 -10.367279 2.711940 -1.900804 0.334887 -8.742347 4.242619 -3.515293 7.842122 0.051493 -3.469087 3.180801 0.320110 0.549290 0.186340 -4.046959 -1.271630 -7.100441 10.410288 -0.137205 7.800169 -2.982603 0.080040 12.584322 0.898821 -1.879933 -9.213599 -4.440156 3.701173 28.827192 -1.699870 2.530370 0.915760 -0.362685 -12.875543 2.743368 13.135914 -20.881144 -5.976031 91.271197 -13.624675 -14.642156 -4.220832 3.301726 -0.135740 0.455790 -0.319910 0.189370 -1.382313 14.310077 5.034510 -8.498454 11.300551 -8.207522 -98.553605 16.393668 -21.653180 2.219942 -2.320578 -0.185620 0.137040 0.015110 0.076440 
-2.747400 17.916100 -0.794100 -93.654402 -87.454165 93.431602 -15.196935 13.656413 3.099545 2.571741 -0.458295 -7.591630 -6.592493 4.555581 4.273189 -0.357777 3.950984 3.366106 0.227500 0.232770 -0.007150 18.278200 -10.425241 2.681924 -1.947568 0.450952 -9.444924 4.185539 -3.566723 8.870720 0.084629 -3.498407 3.177624 0.346140 0.604030 0.200480 -3.700986 -1.286585 -7.017209 10.346093 -0.370694 7.312574 -2.934431 -0.258204 12.616116 0.763216 -1.570007 -8.988210 -3.767656 3.295977 27.619510 -1.639500 2.021540 1.497280 0.190335 -12.671916 2.545457 12.791348 -22.983009 -5.920848 90.345047 -13.410045 -14.534954 -4.274100 3.321552 -0.183170 0.504790 -0.362520 0.208060 -1.676593 13.619238 4.819370 -7.917543 10.939070 -8.057713 -99.124993 16.350592 -21.935147 2.191237 -2.379804 -0.191730 0.148280 0.019810 0.091010 
-2.751270 17.913090 -0.781360 -66.501542 -87.155970 66.184209 -15.020280 13.509280 3.056564 2.514291 -0.521624 -7.842589 -6.645114 4.629989 5.085303 -0.398549 3.930296 3.379704 0.231670 0.238910 -0.004560 18.435816 -10.672586 2.670894 -2.045777 0.550359 -10.255101 3.988875 -3.705126 10.498426 0.099709 -3.544997 3.161104 0.366110 0.624450 0.190370 -3.588426 -1.434978 -6.955274 10.285427 -0.591488 7.393233 -2.952061 -0.511609 12.706700 0.731485 -1.338935 -8.875854 -3.337619 2.977260 27.121758 -1.688540 1.746180 1.401760 0.536495 -12.734944 2.398291 12.821562 -24.558553 -5.982791 89.203981 -13.453393 -14.511293 -4.295001 3.300648 -0.193010 0.521900 -0.381740 0.210480 -1.943942 13.274810 4.734502 -7.437141 10.480754 -8.102031 -99.898224 16.369233 -22.388796 2.169584 -2.399016 -0.208970 0.172080 0.022560 0.087570 
-2.755900 17.912060 -0.764280 -46.417778 -86.426633 45.535266 -15.048792 13.414329 3.018053 2.640342 -0.528981 -7.795935 -6.658283 4.772004 6.200327 -0.427318 3.942182 3.374039 0.241990 0.252070 0.002560 18.376985 -10.924970 2.662432 -2.287048 0.621642 -10.879856 4.153526 -4.034012 12.723037 0.088454 -3.647881 3.110883 0.381730 0.625250 0.185120 -3.670500 -1.658784 -6.914333 10.466439 -0.994537 8.135605 -3.081778 -0.878473 12.806817 0.690452 -1.245373 -8.829045 -3.196117 2.687078 26.825220 -1.590890 1.384680 0.803260 0.552427 -12.992789 2.272955 13.287245 -25.508813 -6.229023 88.112440 -13.696606 -14.611540 -4.298331 3.276071 -0.183440 0.518030 -0.378190 0.211080 -1.879472 13.210811 4.757576 -7.189711 9.541786 -8.311903 -101.206489 16.840989 -23.562726 2.150793 -2.399643 -0.217200 0.191540 0.023910 0.084490 
-2.761960 17.903750 -0.747960 -34.523201 -85.609690 33.226889 -15.153447 13.424075 3.002838 2.765457 -0.569200 -7.967365 -6.736607 4.960828 7.463477 -0.451487 3.987869 3.350002 0.261390 0.272130 0.017380 18.243429 -11.069287 2.629778 -2.601161 0.814665 -12.034994 4.487597 -4.474318 15.669805 0.079570 -3.773877 3.042204 0.401650 0.622090 0.189240 -3.759139 -1.823599 -6.866567 10.380099 -1.249280 8.663763 -2.947559 -1.144161 12.891767 0.666365 -1.035665 -8.740113 -2.834396 2.320978 26.427802 -1.553930 1.028830 0.205130 0.785474 -13.023391 2.126941 13.136017 -26.690305 -6.326824 87.803716 -13.945771 -14.991659 -4.304018 3.266808 -0.178570 0.516720 -0.373260 0.211580 -2.058140 12.932913 4.712745 -6.743615 8.932805 -8.405717 -102.048729 17.390778 -24.681871 2.130804 -2.408906 -0.218150 0.200870 0.022070 0.081070 
